<svg xmlns="http://www.w3.org/2000/svg" viewBox="0 0 421.78 509.6"><defs><style>.cls-1{fill:#eaeaea;}</style></defs><g id="Layer_2" data-name="Layer 2"><g id="Layer_1-2" data-name="Layer 1"><path class="cls-1" d="M421.72,307.79a222.62,222.62,0,0,0-7.31-51.89l-2-7.31c-4.41-11.54-8-21-8-21l-6-10.1-7.57-12.76-1.58-2.68s-2.52-4.24-5.6-9.43-5.59-9.44-5.59-9.45l-8.45-14.24L360,152.78c-.63-1.05-6.27-10.57-12.54-21.15L332.33,106l-13-22c-5.1-8.6-11.42-19.26-14.06-23.7l-6.69-11.29L283.06,22.92c-7.47-12.61-19.52-12.61-26.78,0L243,46c-.05.09-.48.85-1,1.69L226.2,75.21c-7.75,13.46-14.26,24.78-14.47,25.15l-.43.74s-.05,0-.06,0l-.43-.74L196.44,75.17,181.69,49.3l-1.76-3.08c-.12-.21-12.62-.38-27.79-.38s-28.1.89-28.75,2l-5,8.35L101.55,84.29,89.64,104.18l-15.33,25.6c-6.94,11.6-23,40-35.77,63.14l-12,21.74a151.37,151.37,0,0,0-19,41.24c-1.3,4.53-2.11,8.23-2.71,11A212.29,212.29,0,0,0,0,309.74c0,.77,0,1.52,0,2.28a211.53,211.53,0,0,0,3.45,38.17c.65,3.61,1.41,7.2,2.25,10.75A208.66,208.66,0,0,0,14,387.71a180.62,180.62,0,0,0,31.4,55.06c3,3.83,6,7.31,8.84,10.46q4.58,5.08,9.48,9.86c1.64,1.6,3.29,3.17,5,4.7a210.57,210.57,0,0,0,76.21,44.65c2.84.93,5.69,1.81,8.58,2.63a211.65,211.65,0,0,0,33.41,6.57c4.42.5,7.79.73,9.85.87,4.19.28,9.31.62,15.91.55,5.68-.06,10.15-.4,14.92-.77,3.09-.23,5.66-.47,7.5-.65l2.1-.24c3.57-.51,13.72-2.26,22.56-3.91l7.78-2.16q5.87-1.62,11.58-3.57a210.36,210.36,0,0,0,74.17-44c1.62-1.48,3.21-3,4.79-4.51a212.41,212.41,0,0,0,17.33-19l19.11-27.51L409,389.7l1.95-6.88c2.91-12,5.66-23.5,6.1-25.46s2.26-11.91,3-16.32l.71-7.26A217.24,217.24,0,0,0,421.72,307.79Zm-63.38,64.94a95.23,95.23,0,0,1-6.84,14.08L349,391l-1.5,2.46-3,4.89-8.93,11.82-4.46,5.9a159,159,0,0,1-47.65,37.18,157.17,157.17,0,0,1-40.81,14.12l-2.23.47h0c-.13,0-4.45.58-9.6,1.28s-27.75.88-38.32.4l-9.23-1.68-3.17-.61a156.64,156.64,0,0,1-40.33-14.1A158.91,158.91,0,0,1,91.43,415l-7.57-9.55,0,0a157.85,157.85,0,0,1-17.73-31.09h0s-.75-1.8-1.65-4-5.28-16.7-7.6-25.65L56,340h0c-1.45-15.38-2.64-28.15-2.63-28.38s0-4,0-8.25l.79-7.69A201.31,201.31,0,0,1,62,260.24l9.21-19.39c10.13-21.33,29.28-57.45,42.56-80.27l1.38-2.37,4.27-7.34h0c12.22-21,23.92-41.11,26-44.68s3.95-6.78,4.14-7.12.51-.33.7,0l2.83,5c1.37,2.39,7.94,13.91,14.6,25.59l12.59,22.07a4.35,4.35,0,0,1,.21,2.88c-.39.68-6.79,12-13.33,23.72s-21.81,36.38-24.7,40.2-17.23,27.6-21.49,35.63-11.57,24-11.57,24l-1.56,5.44c-.86,3-3,13.68-3.81,18.51l-.2,7.66c0,.38,0,1.44,0,2.64a106.67,106.67,0,0,0,3.54,27.34l1.29,4.52a95.61,95.61,0,0,0,5.49,14.66,198.41,198.41,0,0,0,15.5,22.63l4.82,5.71h0A107.09,107.09,0,0,0,165.15,409c3.59,1.69,7.29,3.11,7.29,3.11l3.68,1.4c6.2,1.7,12.44,3.32,13.87,3.61s6.22,1.07,8.42,1.4,12.37.61,12.58.61h1.65c5.46-.12,11.63-.93,11.63-.93a104.35,104.35,0,0,0,13-2.4,106.72,106.72,0,0,0,11.5-3.67s4.59-1.76,9-3.93a107.48,107.48,0,0,0,34.53-27.05v0l11-16,7.83-16.66a106.62,106.62,0,0,0,6.26-36.11c0-.88,0-1.76,0-2.64L317.06,298l-6-21.83-4.95-8.68c-2.72-4.77-5.32-9.32-5.77-10.12L293,244.51h0a106.76,106.76,0,0,0-80.94-38.89l.68-1.18c.76-1.31,7.31-12.67,14.55-25.25s13.44-23.31,13.74-23.85l1.23-2.13c.37-.64,6.81-11.8,13.47-23.37s13.31-23.08,14.75-25.59l2.84-4.93c.12-.2.31-.2.42,0s2,3.41,4.15,7.14,8.85,15.25,14.85,25.6,12.07,20.8,13.49,23.23l14.85,25.6c6.76,11.64,12.33,21.23,12.37,21.31s5,9.53,10.94,20.85,15.63,33.52,15.93,34.33,3.09,10.67,5.34,19.41S370,310.09,370,310.5s-.31,5.77-.7,11-1,11.28-1.33,13.54S359.44,369.49,358.34,372.73ZM228.45,360.94a52.32,52.32,0,0,1-32.76,0l-2.34-.85a51.93,51.93,0,0,1-33.2-48.44c0-.64,0-1.28,0-1.91a51.92,51.92,0,0,1,103.77,0c0,.63,0,1.27,0,1.91a52,52,0,0,1-33.59,48.58Z" transform="translate(0 -13.46)"/></g></g></svg>